<?xml version="1.0" encoding="UTF-8"?>
<!DOCTYPE svg PUBLIC "-//W3C//DTD SVG 1.1//EN" "http://www.w3.org/Graphics/SVG/1.1/DTD/svg11.dtd">
<svg xmlns="http://www.w3.org/2000/svg" version="1.1" width="4000px" height="1650px" style="shape-rendering:geometricPrecision; text-rendering:geometricPrecision; image-rendering:optimizeQuality; fill-rule:evenodd; clip-rule:evenodd" xmlns:xlink="http://www.w3.org/1999/xlink">
<g><path style="opacity:0.991" fill="#373736" d="M 903.5,527.5 C 865.371,543.79 836.205,570.123 816,606.5C 808.017,620.995 802.184,635.995 798.5,651.5C 794.18,662.764 792.68,674.431 794,686.5C 801.501,731.487 818.834,772.153 846,808.5C 891.025,855.244 916.025,911.244 921,976.5C 922.403,991.811 922.737,1007.14 922,1022.5C 915.559,1059.93 905.225,1096.26 891,1131.5C 877.584,1164.08 863.584,1196.41 849,1228.5C 848.333,1229.83 847.667,1229.83 847,1228.5C 766.44,1039.61 631.606,905.106 442.5,825C 529.264,788.149 606.93,737.815 675.5,674C 749.998,600.884 807.498,516.051 848,419.5C 864.169,456.842 882.669,492.842 903.5,527.5 Z M 754.5,643.5 C 762.869,643.947 771.203,644.781 779.5,646C 784.118,646.569 788.451,647.902 792.5,650C 770.748,672.318 755.248,698.484 746,728.5C 744.105,735.878 743.271,743.378 743.5,751C 744.116,762.579 745.449,774.079 747.5,785.5C 747.439,788.903 746.939,792.236 746,795.5C 743.72,799.447 741.053,803.113 738,806.5C 725.667,818.833 713.333,831.167 701,843.5C 698.617,848.585 699.45,853.085 703.5,857C 711.919,861.96 720.419,866.793 729,871.5C 732.218,879.838 730.218,886.505 723,891.5C 719.43,900.854 722.596,906.688 732.5,909C 726.264,912.633 724.431,917.799 727,924.5C 731.185,927.595 735.185,930.928 739,934.5C 739.667,936.167 739.667,937.833 739,939.5C 732.919,950.918 733.586,961.918 741,972.5C 749.207,979.809 758.873,983.142 770,982.5C 786.404,980.853 802.571,977.853 818.5,973.5C 819.167,973.833 819.833,974.167 820.5,974.5C 809.651,996.198 798.818,1017.86 788,1039.5C 785.217,1043.95 782.05,1048.12 778.5,1052C 770.644,1057.02 763.311,1056.36 756.5,1050C 739.678,1034.85 725.844,1017.35 715,997.5C 684.94,939.99 663.606,879.323 651,815.5C 643.78,782.68 645.447,750.347 656,718.5C 674.075,673.904 706.909,648.904 754.5,643.5 Z"/></g>
<g><path style="opacity:0.989" fill="#363735" d="M 1523.5,500.5 C 1558.82,497.16 1590.82,505.66 1619.5,526C 1635.93,539.346 1645.76,556.513 1649,577.5C 1649.67,687.167 1649.67,796.833 1649,906.5C 1642.77,939.425 1623.93,961.925 1592.5,974C 1554.43,987.498 1516.76,986.498 1479.5,971C 1452.51,958.007 1436.01,936.84 1430,907.5C 1428.55,855.854 1428.05,804.187 1428.5,752.5C 1439.23,757.636 1448.73,764.636 1457,773.5C 1468.24,785.625 1477.24,799.291 1484,814.5C 1484.67,765.5 1484.67,716.5 1484,667.5C 1472.82,694.509 1454.66,715.509 1429.5,730.5C 1429.17,706.667 1428.83,682.833 1428.5,659C 1428.38,631.479 1428.88,603.979 1430,576.5C 1436.08,546.187 1453.25,524.687 1481.5,512C 1495.11,506.268 1509.11,502.435 1523.5,500.5 Z M 1527.5,518.5 C 1550.95,514.974 1570.78,521.641 1587,538.5C 1590.91,544.229 1593.24,550.563 1594,557.5C 1594.67,680.833 1594.67,804.167 1594,927.5C 1590.43,946.401 1579.27,958.235 1560.5,963C 1539.64,968.485 1519.98,965.819 1501.5,955C 1492.05,948.269 1486.55,939.102 1485,927.5C 1484.33,891.167 1484.33,854.833 1485,818.5C 1499.95,782.382 1525.45,756.715 1561.5,741.5C 1526.14,725.637 1500.64,699.971 1485,664.5C 1484.04,626.8 1484.37,589.133 1486,551.5C 1490.26,538.903 1498.43,529.736 1510.5,524C 1516.14,521.682 1521.8,519.849 1527.5,518.5 Z"/></g>
<g><path style="opacity:0.985" fill="#a38660" d="M 2555.5,500.5 C 2584.43,499.118 2611.76,504.951 2637.5,518C 2663.84,534.388 2677.67,558.221 2679,589.5C 2679.5,604.163 2679.67,618.83 2679.5,633.5C 2660.17,633.5 2640.83,633.5 2621.5,633.5C 2621.67,608.498 2621.5,583.498 2621,558.5C 2617.47,542.284 2607.97,531.117 2592.5,525C 2573.47,517.727 2554.47,517.727 2535.5,525C 2521.12,532.05 2512.96,543.55 2511,559.5C 2510.33,681.5 2510.33,803.5 2511,925.5C 2514.24,942.149 2523.74,953.649 2539.5,960C 2560.99,968.196 2581.99,967.196 2602.5,957C 2612.68,950.142 2618.85,940.642 2621,928.5C 2621.5,894.502 2621.67,860.502 2621.5,826.5C 2640.83,826.5 2660.17,826.5 2679.5,826.5C 2679.87,853.855 2679.37,881.188 2678,908.5C 2671.34,949.497 2647.5,973.663 2606.5,981C 2567.5,987.999 2530.5,982.332 2495.5,964C 2470.39,948.97 2456.56,926.804 2454,897.5C 2453.33,793.833 2453.33,690.167 2454,586.5C 2457.39,545.778 2478.56,519.278 2517.5,507C 2530.11,503.654 2542.78,501.488 2555.5,500.5 Z"/></g>
<g><path style="opacity:0.998" fill="#a38660" d="M 2732.5,501.5 C 2749.83,501.5 2767.17,501.5 2784.5,501.5C 2784.33,643.834 2784.5,786.167 2785,928.5C 2785.54,938.663 2788.54,947.997 2794,956.5C 2797.88,960.844 2802.71,962.511 2808.5,961.5C 2808.5,967.5 2808.5,973.5 2808.5,979.5C 2797.08,979.803 2785.75,978.969 2774.5,977C 2749.91,972.356 2736.41,957.523 2734,932.5C 2732.51,788.854 2732.01,645.187 2732.5,501.5 Z"/></g>
<g><path style="opacity:0.989" fill="#363735" d="M 1856.5,503.5 C 1873.83,503.5 1891.17,503.5 1908.5,503.5C 1908.98,640.85 1908.48,778.184 1907,915.5C 1901.81,948.021 1883.31,968.521 1851.5,977C 1813.39,985.81 1777.06,981.143 1742.5,963C 1722.24,950.389 1710.4,932.223 1707,908.5C 1706.33,842.167 1706.33,775.833 1707,709.5C 1710.46,678.392 1726.63,656.892 1755.5,645C 1784.64,634.602 1813.97,633.936 1843.5,643C 1847.62,644.559 1851.62,646.393 1855.5,648.5C 1856.5,600.171 1856.83,551.838 1856.5,503.5 Z M 1798.5,653.5 C 1819.21,652.228 1836.38,659.228 1850,674.5C 1853.7,680.292 1855.7,686.626 1856,693.5C 1856.98,773.857 1856.64,854.19 1855,934.5C 1850.93,947.573 1842.43,956.406 1829.5,961C 1806.74,967.683 1786.24,963.516 1768,948.5C 1763.41,943.327 1760.41,937.327 1759,930.5C 1758.33,849.167 1758.33,767.833 1759,686.5C 1761.77,671.729 1770.27,661.896 1784.5,657C 1789.22,655.506 1793.89,654.339 1798.5,653.5 Z"/></g>
<g><path style="opacity:0.989" fill="#a38560" d="M 903.5,527.5 C 974.567,643.068 1070.23,732.234 1190.5,795C 1211.41,805.289 1232.41,815.289 1253.5,825C 1147.56,869.11 1056.22,933.61 979.5,1018.5C 979.167,1018.17 978.833,1017.83 978.5,1017.5C 979.432,1015.2 980.265,1012.87 981,1010.5C 995.945,970.942 1010.61,931.276 1025,891.5C 1032.76,866.124 1039.43,840.458 1045,814.5C 1052.46,779.343 1049.79,745.01 1037,711.5C 1010.98,659.405 969.145,637.905 911.5,647C 902.227,649.202 893.227,652.202 884.5,656C 872.581,662.696 860.247,668.529 847.5,673.5C 835.774,668.804 824.441,663.304 813.5,657C 808.668,654.668 803.668,652.834 798.5,651.5C 802.184,635.995 808.017,620.995 816,606.5C 836.205,570.123 865.371,543.79 903.5,527.5 Z"/></g>
<g><path style="opacity:0.985" fill="#363735" d="M 2053.5,634.5 C 2080.81,632.794 2106.48,638.294 2130.5,651C 2151.92,664.987 2163.75,684.82 2166,710.5C 2166.67,723.5 2166.67,736.5 2166,749.5C 2163.61,766.472 2155.11,779.305 2140.5,788C 2134.07,791.549 2127.4,794.549 2120.5,797C 2096.69,802.828 2073.03,809.161 2049.5,816C 2037.03,820.146 2027.2,827.646 2020,838.5C 2018.59,842.057 2017.59,845.724 2017,849.5C 2016.04,877.207 2016.38,904.874 2018,932.5C 2024.17,946.994 2035.01,956.161 2050.5,960C 2069.26,964.893 2086.59,961.893 2102.5,951C 2109.4,944.708 2113.23,936.875 2114,927.5C 2114.5,902.169 2114.67,876.836 2114.5,851.5C 2131.83,851.5 2149.17,851.5 2166.5,851.5C 2178.9,950.604 2135.9,992.104 2037.5,976C 2010.37,971.033 1989.2,957.2 1974,934.5C 1968.83,925.161 1965.83,915.161 1965,904.5C 1964.33,839.5 1964.33,774.5 1965,709.5C 1969.42,672.07 1989.92,648.57 2026.5,639C 2035.57,637.043 2044.57,635.543 2053.5,634.5 Z M 2059.5,651.5 C 2101.31,653.313 2119.65,674.98 2114.5,716.5C 2115.1,731.99 2113.93,747.323 2111,762.5C 2106.48,776.352 2096.98,784.518 2082.5,787C 2064.85,790.328 2047.85,795.661 2031.5,803C 2026.4,805.773 2021.56,808.94 2017,812.5C 2016.03,768.468 2016.37,724.468 2018,680.5C 2022.32,666.187 2031.82,657.354 2046.5,654C 2050.99,653.24 2055.32,652.406 2059.5,651.5 Z"/></g>
<g><path style="opacity:0.984" fill="#a38660" d="M 2933.5,634.5 C 2954.05,633.594 2974.05,636.428 2993.5,643C 3020.23,653.056 3037.06,671.889 3044,699.5C 3045.58,717.128 3045.91,734.794 3045,752.5C 3041.66,768.678 3032.83,780.844 3018.5,789C 3010.5,793.164 3002.17,796.497 2993.5,799C 2973.71,803.531 2954.04,808.531 2934.5,814C 2920.06,817.784 2908.56,825.617 2900,837.5C 2898.6,840.363 2897.6,843.363 2897,846.5C 2896.33,874.5 2896.33,902.5 2897,930.5C 2901.88,945.042 2911.71,954.542 2926.5,959C 2945.12,964.957 2962.79,962.957 2979.5,953C 2986.7,947.099 2991.2,939.599 2993,930.5C 2993.5,904.169 2993.67,877.835 2993.5,851.5C 3010.83,851.5 3028.17,851.5 3045.5,851.5C 3045.67,871.169 3045.5,890.836 3045,910.5C 3039.91,947.929 3018.74,970.096 2981.5,977C 2951.76,982.059 2922.76,979.392 2894.5,969C 2867.28,958.032 2850.78,938.198 2845,909.5C 2844.33,841.167 2844.33,772.833 2845,704.5C 2850.38,670.786 2869.54,649.286 2902.5,640C 2912.84,637.361 2923.17,635.528 2933.5,634.5 Z M 2938.5,651.5 C 2981.77,652.942 3000.1,675.109 2993.5,718C 2993.33,728.5 2993.17,739 2993,749.5C 2992.51,763.316 2986.68,774.149 2975.5,782C 2957.81,787.173 2940.15,792.506 2922.5,798C 2913.14,801.428 2904.64,806.261 2897,812.5C 2896.02,767.787 2896.35,723.121 2898,678.5C 2902.56,666.936 2910.73,659.102 2922.5,655C 2927.91,653.504 2933.24,652.337 2938.5,651.5 Z"/></g>
<g><path style="opacity:0.992" fill="#a38660" d="M 3441.5,634.5 C 3471.65,631.788 3499.32,638.621 3524.5,655C 3542,668.15 3552.16,685.65 3555,707.5C 3555.5,797.833 3555.67,888.166 3555.5,978.5C 3538.17,978.5 3520.83,978.5 3503.5,978.5C 3503.67,880.833 3503.5,783.166 3503,685.5C 3499.49,669.651 3489.99,659.151 3474.5,654C 3454.81,648.605 3436.81,651.939 3420.5,664C 3415.32,669.185 3411.82,675.352 3410,682.5C 3408.52,781.14 3408.02,879.807 3408.5,978.5C 3391.17,978.5 3373.83,978.5 3356.5,978.5C 3356.02,886.479 3356.52,794.479 3358,702.5C 3363.93,674.561 3380.1,655.061 3406.5,644C 3417.91,639.4 3429.58,636.233 3441.5,634.5 Z"/></g>
<g><path style="opacity:0.985" fill="#363735" d="M 2286.5,635.5 C 2362.9,629.231 2398.56,664.231 2393.5,740.5C 2376.17,740.5 2358.83,740.5 2341.5,740.5C 2341.67,724.497 2341.5,708.497 2341,692.5C 2338.17,670.333 2325.67,657.166 2303.5,653C 2274.14,651.029 2258.47,664.696 2256.5,694C 2256.44,712.882 2263.44,728.549 2277.5,741C 2297.17,754.844 2317.84,767.177 2339.5,778C 2390.55,806.005 2411.72,849.172 2403,907.5C 2401.23,941.247 2384.4,963.414 2352.5,974C 2318.05,983.412 2284.05,982.079 2250.5,970C 2222.92,957.356 2207.75,935.856 2205,905.5C 2204.5,887.503 2204.33,869.503 2204.5,851.5C 2221.83,851.5 2239.17,851.5 2256.5,851.5C 2256.33,876.836 2256.5,902.169 2257,927.5C 2260.14,946.52 2271.3,957.687 2290.5,961C 2311.16,965.214 2328.99,960.047 2344,945.5C 2347.71,940.41 2350.04,934.743 2351,928.5C 2351.67,912.833 2351.67,897.167 2351,881.5C 2350.11,870.165 2346.44,859.831 2340,850.5C 2332.46,841.296 2323.96,833.129 2314.5,826C 2296.66,814.245 2278.33,803.245 2259.5,793C 2244.19,783.691 2230.69,772.191 2219,758.5C 2203.3,734.415 2200.3,708.748 2210,681.5C 2220.3,659.253 2237.46,645.42 2261.5,640C 2269.94,638.262 2278.27,636.762 2286.5,635.5 Z"/></g>
<g><path style="opacity:0.982" fill="#a38660" d="M 3192.5,635.5 C 3224.59,634.131 3251.76,644.798 3274,667.5C 3283.81,680.123 3289.47,694.456 3291,710.5C 3291.5,800.166 3291.67,889.833 3291.5,979.5C 3252.17,979.667 3212.83,979.5 3173.5,979C 3145.14,977.783 3121.31,966.95 3102,946.5C 3094.59,936.348 3089.93,925.014 3088,912.5C 3076.54,857.071 3097.38,820.571 3150.5,803C 3169.42,798.936 3188.09,793.936 3206.5,788C 3215.77,784.457 3223.93,779.291 3231,772.5C 3234.39,768.391 3236.72,763.725 3238,758.5C 3239.1,745.873 3239.6,733.206 3239.5,720.5C 3239.6,707.794 3239.1,695.127 3238,682.5C 3233.03,666.415 3222.19,656.915 3205.5,654C 3189.46,651.337 3175.13,655.004 3162.5,665C 3155.78,671.057 3151.62,678.557 3150,687.5C 3149.5,705.164 3149.33,722.83 3149.5,740.5C 3132.17,740.5 3114.83,740.5 3097.5,740.5C 3092.06,688.805 3114.06,655.305 3163.5,640C 3173.2,637.782 3182.87,636.282 3192.5,635.5 Z M 3237.5,792.5 C 3238.17,814.831 3238.5,837.331 3238.5,860C 3238.65,883.881 3238.15,907.714 3237,931.5C 3225.68,950.102 3209.02,959.436 3187,959.5C 3161.63,958.473 3146.3,945.473 3141,920.5C 3139.42,900.867 3139.09,881.2 3140,861.5C 3141.12,841.402 3150.96,827.569 3169.5,820C 3185.83,816.002 3201.83,811.002 3217.5,805C 3224.74,801.559 3231.4,797.393 3237.5,792.5 Z"/></g>
<g><path style="opacity:0.688" fill="#9c9d9b" d="M 535.5,668.5 C 536.598,669.601 536.765,670.934 536,672.5C 535.51,671.207 535.343,669.873 535.5,668.5 Z"/></g>
<g><path style="opacity:0.896" fill="#a38660" d="M 3169.5,1030.5 C 3173.86,1031.51 3177.86,1033.34 3181.5,1036C 3176.83,1040.67 3172.17,1045.33 3167.5,1050C 3164.52,1050.5 3161.52,1050.66 3158.5,1050.5C 3158.35,1049.45 3158.52,1048.45 3159,1047.5C 3163.02,1042.11 3166.52,1036.45 3169.5,1030.5 Z"/></g>
<g><path style="opacity:0.945" fill="#a38660" d="M 1467.5,1055.5 C 1488.18,1053.43 1504.02,1061.09 1515,1078.5C 1522.87,1095.84 1522.2,1112.84 1513,1129.5C 1499.92,1146.74 1482.75,1152.9 1461.5,1148C 1435.95,1138.43 1425.12,1119.93 1429,1092.5C 1434.24,1072.09 1447.07,1059.76 1467.5,1055.5 Z M 1472.5,1065.5 C 1495.35,1067.52 1507.69,1080.02 1509.5,1103C 1505.57,1130.78 1489.91,1142.11 1462.5,1137C 1443.96,1127.76 1436.8,1112.93 1441,1092.5C 1445.89,1076.77 1456.39,1067.77 1472.5,1065.5 Z"/></g>
<g><path style="opacity:0.939" fill="#a38660" d="M 1695.5,1055.5 C 1715.78,1053.56 1731.62,1060.9 1743,1077.5C 1753.67,1099.64 1750.84,1119.81 1734.5,1138C 1714.08,1152.94 1693.41,1153.27 1672.5,1139C 1653.88,1118.88 1651.72,1097.04 1666,1073.5C 1673.6,1063.79 1683.43,1057.79 1695.5,1055.5 Z M 1701.5,1065.5 C 1718.48,1066.32 1729.98,1074.65 1736,1090.5C 1741.57,1118.23 1730.57,1134.56 1703,1139.5C 1681.66,1136.33 1670.16,1123.99 1668.5,1102.5C 1669.64,1081.13 1680.64,1068.8 1701.5,1065.5 Z"/></g>
<g><path style="opacity:0.943" fill="#a38660" d="M 2012.5,1055.5 C 2033.14,1053.53 2048.98,1061.2 2060,1078.5C 2067.82,1095.83 2067.16,1112.83 2058,1129.5C 2044.92,1146.74 2027.75,1152.9 2006.5,1148C 1988.82,1142.98 1977.98,1131.48 1974,1113.5C 1970.18,1082.74 1983.01,1063.41 2012.5,1055.5 Z M 2017.5,1065.5 C 2040.35,1067.51 2052.68,1080.01 2054.5,1103C 2050.54,1130.8 2034.87,1142.13 2007.5,1137C 1988.66,1127.47 1981.49,1112.31 1986,1091.5C 1991.31,1076.34 2001.81,1067.67 2017.5,1065.5 Z"/></g>
<g><path style="opacity:0.939" fill="#a38660" d="M 2214.5,1055.5 C 2249.98,1054.81 2267.81,1072.15 2268,1107.5C 2261.4,1139.4 2241.9,1152.9 2209.5,1148C 2190.15,1142.31 2178.98,1129.48 2176,1109.5C 2174.02,1080.68 2186.85,1062.68 2214.5,1055.5 Z M 2220.5,1065.5 C 2242.63,1067.97 2254.63,1080.3 2256.5,1102.5C 2255.45,1124.6 2243.95,1136.93 2222,1139.5C 2200.03,1136.86 2188.53,1124.53 2187.5,1102.5C 2188.38,1080.96 2199.38,1068.63 2220.5,1065.5 Z"/></g>
<g><path style="opacity:0.941" fill="#a38660" d="M 2332.5,1055.5 C 2344.49,1054.4 2355.82,1056.56 2366.5,1062C 2369.15,1063.65 2371.48,1065.65 2373.5,1068C 2371.35,1070.82 2369.18,1073.66 2367,1076.5C 2352.42,1064.56 2336.92,1063.06 2320.5,1072C 2304.42,1087.3 2301.59,1104.8 2312,1124.5C 2325.02,1140.04 2340.85,1143.54 2359.5,1135C 2361.75,1133.62 2363.92,1132.12 2366,1130.5C 2366.5,1123.51 2366.67,1116.51 2366.5,1109.5C 2357.17,1109.5 2347.83,1109.5 2338.5,1109.5C 2338.5,1106.17 2338.5,1102.83 2338.5,1099.5C 2351.5,1099.5 2364.5,1099.5 2377.5,1099.5C 2377.67,1111.5 2377.5,1123.5 2377,1135.5C 2361.28,1148.78 2343.45,1152.61 2323.5,1147C 2307.47,1140.96 2297.97,1129.46 2295,1112.5C 2291.56,1082.65 2304.06,1063.65 2332.5,1055.5 Z"/></g>
<g><path style="opacity:0.938" fill="#a38660" d="M 2973.5,1055.5 C 2983.27,1055.16 2992.61,1056.99 3001.5,1061C 3004.76,1062.46 3007.42,1064.63 3009.5,1067.5C 3007.85,1070.47 3005.85,1073.14 3003.5,1075.5C 2994.97,1068.82 2985.3,1065.66 2974.5,1066C 2961.59,1068.19 2957.09,1075.36 2961,1087.5C 2962.56,1089.36 2964.39,1090.86 2966.5,1092C 2976.4,1095.31 2986.4,1098.31 2996.5,1101C 3010.54,1107.1 3015.38,1117.6 3011,1132.5C 3007.6,1140.9 3001.43,1146.07 2992.5,1148C 2974.02,1151.88 2958.02,1147.38 2944.5,1134.5C 2946.12,1131.22 2948.45,1128.55 2951.5,1126.5C 2962.5,1137.11 2975.5,1140.94 2990.5,1138C 3002.36,1132.42 3004.36,1124.42 2996.5,1114C 2993.62,1112.39 2990.62,1111.06 2987.5,1110C 2976.17,1108.11 2965.5,1104.45 2955.5,1099C 2946.86,1089.95 2945.36,1079.78 2951,1068.5C 2956.82,1061.18 2964.32,1056.84 2973.5,1055.5 Z"/></g>
<g><path style="opacity:0.937" fill="#a38660" d="M 3402.5,1055.5 C 3414.97,1054.36 3426.64,1056.86 3437.5,1063C 3440.65,1064.98 3443.31,1067.48 3445.5,1070.5C 3443.18,1073.32 3440.68,1075.98 3438,1078.5C 3418.58,1060.77 3399.91,1061.44 3382,1080.5C 3371.16,1100.27 3373.99,1117.77 3390.5,1133C 3400.54,1139.34 3411.2,1140.67 3422.5,1137C 3428.44,1134.12 3433.94,1130.62 3439,1126.5C 3442.66,1128.13 3444.66,1130.8 3445,1134.5C 3426.35,1151.5 3405.85,1154 3383.5,1142C 3367.27,1128.98 3361.1,1112.15 3365,1091.5C 3370.56,1072.1 3383.06,1060.1 3402.5,1055.5 Z"/></g>
<g><path style="opacity:0.945" fill="#a38660" d="M 2488.5,1056.5 C 2492.23,1056.18 2495.89,1056.51 2499.5,1057.5C 2513.04,1087.41 2526.7,1117.24 2540.5,1147C 2536.13,1147.83 2531.8,1147.66 2527.5,1146.5C 2524.1,1139.29 2521.1,1131.96 2518.5,1124.5C 2502.16,1124.33 2485.83,1124.5 2469.5,1125C 2466.27,1132.19 2462.93,1139.36 2459.5,1146.5C 2455.54,1147.66 2451.54,1147.83 2447.5,1147C 2461.46,1116.95 2475.13,1086.78 2488.5,1056.5 Z M 2493.5,1070.5 C 2499.99,1084.98 2506.66,1099.48 2513.5,1114C 2500.49,1114.83 2487.49,1114.67 2474.5,1113.5C 2481.12,1099.26 2487.45,1084.93 2493.5,1070.5 Z"/></g>
<g><path style="opacity:0.944" fill="#a38660" d="M 3505.5,1056.5 C 3509.23,1056.18 3512.89,1056.51 3516.5,1057.5C 3530.4,1087.3 3543.73,1117.3 3556.5,1147.5C 3552.45,1147.82 3548.45,1147.49 3544.5,1146.5C 3541.3,1139.26 3537.96,1132.09 3534.5,1125C 3518.5,1124.33 3502.5,1124.33 3486.5,1125C 3483.04,1132.09 3479.7,1139.26 3476.5,1146.5C 3472.5,1147.83 3468.5,1147.83 3464.5,1146.5C 3478.18,1116.47 3491.85,1086.47 3505.5,1056.5 Z M 3509.5,1071.5 C 3511.34,1072.12 3512.5,1073.46 3513,1075.5C 3518.8,1088.41 3524.3,1101.41 3529.5,1114.5C 3516.82,1114.83 3504.15,1114.5 3491.5,1113.5C 3497.7,1099.55 3503.7,1085.55 3509.5,1071.5 Z"/></g>
<g><path style="opacity:0.951" fill="#a38660" d="M 1550.5,1057.5 C 1564.84,1057.33 1579.17,1057.5 1593.5,1058C 1620.92,1065.31 1633.08,1083.15 1630,1111.5C 1625.42,1131.08 1613.26,1142.91 1593.5,1147C 1579.17,1147.5 1564.84,1147.67 1550.5,1147.5C 1550.5,1117.5 1550.5,1087.5 1550.5,1057.5 Z M 1561.5,1067.5 C 1570.84,1067.33 1580.17,1067.5 1589.5,1068C 1608.2,1071.89 1618.2,1083.39 1619.5,1102.5C 1618.21,1121.62 1608.21,1133.12 1589.5,1137C 1580.17,1137.5 1570.84,1137.67 1561.5,1137.5C 1561.5,1114.17 1561.5,1090.83 1561.5,1067.5 Z"/></g>
<g><path style="opacity:0.951" fill="#a38660" d="M 1779.5,1057.5 C 1783.18,1057.33 1786.85,1057.5 1790.5,1058C 1809.03,1080.89 1827.2,1104.06 1845,1127.5C 1845.5,1104.17 1845.67,1080.84 1845.5,1057.5C 1849.17,1057.5 1852.83,1057.5 1856.5,1057.5C 1856.5,1087.5 1856.5,1117.5 1856.5,1147.5C 1853.15,1147.67 1849.82,1147.5 1846.5,1147C 1827.88,1123.59 1809.38,1100.09 1791,1076.5C 1790.5,1100.16 1790.33,1123.83 1790.5,1147.5C 1786.83,1147.5 1783.17,1147.5 1779.5,1147.5C 1779.5,1117.5 1779.5,1087.5 1779.5,1057.5 Z"/></g>
<g><path style="opacity:0.95" fill="#a38660" d="M 1883.5,1057.5 C 1907.5,1057.5 1931.5,1057.5 1955.5,1057.5C 1955.5,1060.83 1955.5,1064.17 1955.5,1067.5C 1945.5,1067.5 1935.5,1067.5 1925.5,1067.5C 1925.5,1094.17 1925.5,1120.83 1925.5,1147.5C 1921.83,1147.5 1918.17,1147.5 1914.5,1147.5C 1914.5,1120.83 1914.5,1094.17 1914.5,1067.5C 1904.17,1067.5 1893.83,1067.5 1883.5,1067.5C 1883.5,1064.17 1883.5,1060.83 1883.5,1057.5 Z"/></g>
<g><path style="opacity:0.95" fill="#a38660" d="M 2095.5,1057.5 C 2099.17,1057.5 2102.83,1057.5 2106.5,1057.5C 2106.5,1084.17 2106.5,1110.83 2106.5,1137.5C 2123.5,1137.5 2140.5,1137.5 2157.5,1137.5C 2157.5,1140.83 2157.5,1144.17 2157.5,1147.5C 2136.83,1147.5 2116.17,1147.5 2095.5,1147.5C 2095.5,1117.5 2095.5,1087.5 2095.5,1057.5 Z"/></g>
<g><path style="opacity:1" fill="#a38660" d="M 2409.5,1057.5 C 2413.17,1057.5 2416.83,1057.5 2420.5,1057.5C 2420.5,1087.5 2420.5,1117.5 2420.5,1147.5C 2416.83,1147.5 2413.17,1147.5 2409.5,1147.5C 2409.5,1117.5 2409.5,1087.5 2409.5,1057.5 Z"/></g>
<g><path style="opacity:0.95" fill="#a38660" d="M 2662.5,1057.5 C 2684.5,1057.5 2706.5,1057.5 2728.5,1057.5C 2728.5,1060.83 2728.5,1064.17 2728.5,1067.5C 2710.17,1067.5 2691.83,1067.5 2673.5,1067.5C 2673.5,1077.5 2673.5,1087.5 2673.5,1097.5C 2689.83,1097.5 2706.17,1097.5 2722.5,1097.5C 2722.5,1100.83 2722.5,1104.17 2722.5,1107.5C 2706.17,1107.5 2689.83,1107.5 2673.5,1107.5C 2673.5,1117.5 2673.5,1127.5 2673.5,1137.5C 2692.17,1137.5 2710.83,1137.5 2729.5,1137.5C 2729.5,1140.83 2729.5,1144.17 2729.5,1147.5C 2707.17,1147.5 2684.83,1147.5 2662.5,1147.5C 2662.5,1117.5 2662.5,1087.5 2662.5,1057.5 Z"/></g>
<g><path style="opacity:0.966" fill="#a38660" d="M 2854.5,1057.5 C 2876.5,1057.5 2898.5,1057.5 2920.5,1057.5C 2920.5,1060.83 2920.5,1064.17 2920.5,1067.5C 2902.17,1067.5 2883.83,1067.5 2865.5,1067.5C 2865.5,1077.5 2865.5,1087.5 2865.5,1097.5C 2881.83,1097.5 2898.17,1097.5 2914.5,1097.5C 2914.5,1100.83 2914.5,1104.17 2914.5,1107.5C 2898.17,1107.5 2881.83,1107.5 2865.5,1107.5C 2865.5,1117.5 2865.5,1127.5 2865.5,1137.5C 2884.17,1137.5 2902.83,1137.5 2921.5,1137.5C 2921.5,1140.83 2921.5,1144.17 2921.5,1147.5C 2899.17,1147.5 2876.83,1147.5 2854.5,1147.5C 2854.5,1117.5 2854.5,1087.5 2854.5,1057.5 Z"/></g>
<g><path style="opacity:0.956" fill="#a38660" d="M 3033.5,1057.5 C 3057.17,1057.5 3080.83,1057.5 3104.5,1057.5C 3104.5,1060.83 3104.5,1064.17 3104.5,1067.5C 3094.5,1067.5 3084.5,1067.5 3074.5,1067.5C 3074.5,1094.17 3074.5,1120.83 3074.5,1147.5C 3070.83,1147.5 3067.17,1147.5 3063.5,1147.5C 3063.5,1120.83 3063.5,1094.17 3063.5,1067.5C 3053.5,1067.5 3043.5,1067.5 3033.5,1067.5C 3033.5,1064.17 3033.5,1060.83 3033.5,1057.5 Z"/></g>
<g><path style="opacity:0.95" fill="#a38660" d="M 3132.5,1057.5 C 3154.5,1057.5 3176.5,1057.5 3198.5,1057.5C 3198.5,1060.83 3198.5,1064.17 3198.5,1067.5C 3180.17,1067.5 3161.83,1067.5 3143.5,1067.5C 3143.5,1077.5 3143.5,1087.5 3143.5,1097.5C 3159.83,1097.5 3176.17,1097.5 3192.5,1097.5C 3192.5,1100.83 3192.5,1104.17 3192.5,1107.5C 3176.17,1107.5 3159.83,1107.5 3143.5,1107.5C 3143.5,1117.5 3143.5,1127.5 3143.5,1137.5C 3162.17,1137.5 3180.83,1137.5 3199.5,1137.5C 3199.5,1140.83 3199.5,1144.17 3199.5,1147.5C 3177.17,1147.5 3154.83,1147.5 3132.5,1147.5C 3132.5,1117.5 3132.5,1087.5 3132.5,1057.5 Z"/></g>
<g><path style="opacity:0.929" fill="#a38660" d="M 3221.5,1057.5 C 3245.5,1057.5 3269.5,1057.5 3293.5,1057.5C 3293.5,1060.83 3293.5,1064.17 3293.5,1067.5C 3283.5,1067.5 3273.5,1067.5 3263.5,1067.5C 3263.5,1094.17 3263.5,1120.83 3263.5,1147.5C 3259.5,1147.5 3255.5,1147.5 3251.5,1147.5C 3251.5,1120.83 3251.5,1094.17 3251.5,1067.5C 3241.5,1067.5 3231.5,1067.5 3221.5,1067.5C 3221.5,1064.17 3221.5,1060.83 3221.5,1057.5 Z"/></g>
<g><path style="opacity:0.917" fill="#a38660" d="M 3321.5,1057.5 C 3325.5,1057.5 3329.5,1057.5 3333.5,1057.5C 3333.5,1087.5 3333.5,1117.5 3333.5,1147.5C 3329.5,1147.5 3325.5,1147.5 3321.5,1147.5C 3321.5,1117.5 3321.5,1087.5 3321.5,1057.5 Z"/></g>
</svg>
